<?xml version="1.0" encoding="UTF-8" standalone="no"?><svg xmlns="http://www.w3.org/2000/svg" xmlns:xlink="http://www.w3.org/1999/xlink" contentStyleType="text/css" height="267px" preserveAspectRatio="none" style="width:315px;height:267px;background:#FFFFFF;" version="1.1" viewBox="0 0 315 267" width="315px" zoomAndPan="magnify"><defs/><g><!--MD5=[8f63e0a1f0991d46290710b815fbcf7f]
cluster demo--><g id="cluster_demo"><path d="M8.5,96 L53.5,96 A3.75,3.75 0 0 1 56,98.5 L63,118.2969 L305.5,118.2969 A2.5,2.5 0 0 1 308,120.7969 L308,257.5 A2.5,2.5 0 0 1 305.5,260 L8.5,260 A2.5,2.5 0 0 1 6,257.5 L6,98.5 A2.5,2.5 0 0 1 8.5,96 " fill="none" style="stroke:#000000;stroke-width:1.5;"/><line style="stroke:#000000;stroke-width:1.5;" x1="6" x2="63" y1="118.2969" y2="118.2969"/><text fill="#000000" font-family="sans-serif" font-size="14" font-weight="bold" lengthAdjust="spacing" textLength="44" x="10" y="110.9951">demo</text></g><!--MD5=[08dbe06e87f91eb667838fe2f259c34a]
class Money--><g id="elem_Money"><rect codeLine="2" fill="#F1F1F1" height="113.1875" id="Money" rx="2.5" ry="2.5" style="stroke:#181818;stroke-width:0.5;" width="270" x="22" y="131"/><ellipse cx="129.25" cy="147" fill="#ADD1B2" rx="11" ry="11" style="stroke:#181818;stroke-width:1.0;"/><path d="M131.5938,142.6719 C130.6563,142.2344 130.0625,142.0938 129.1875,142.0938 C126.5625,142.0938 124.5625,144.1719 124.5625,146.8906 L124.5625,148.0156 C124.5625,150.5938 126.6719,152.4844 129.5625,152.4844 C130.7813,152.4844 131.9375,152.1875 132.6875,151.6406 C133.2656,151.2344 133.5938,150.7813 133.5938,150.3906 C133.5938,149.9375 133.2031,149.5469 132.7344,149.5469 C132.5156,149.5469 132.3125,149.625 132.125,149.8125 C131.6719,150.2969 131.6719,150.2969 131.4844,150.3906 C131.0625,150.6563 130.375,150.7813 129.6094,150.7813 C127.5625,150.7813 126.2656,149.6875 126.2656,147.9844 L126.2656,146.8906 C126.2656,145.1094 127.5156,143.7969 129.25,143.7969 C129.8281,143.7969 130.4375,143.9531 130.9063,144.2031 C131.3906,144.4844 131.5625,144.7031 131.6563,145.1094 C131.7188,145.5156 131.75,145.6406 131.8906,145.7656 C132.0313,145.9063 132.2656,146.0156 132.4844,146.0156 C132.75,146.0156 133.0156,145.875 133.1875,145.6563 C133.2969,145.5 133.3281,145.3125 133.3281,144.8906 L133.3281,143.4688 C133.3281,143.0313 133.3125,142.9063 133.2188,142.75 C133.0625,142.4844 132.7813,142.3438 132.4844,142.3438 C132.1875,142.3438 131.9844,142.4375 131.7656,142.75 L131.5938,142.6719 Z " fill="#000000"/><text fill="#000000" font-family="sans-serif" font-size="14" lengthAdjust="spacing" textLength="47" x="149.75" y="151.8467">Money</text><line style="stroke:#181818;stroke-width:0.5;" x1="23" x2="291" y1="163" y2="163"/><rect fill="none" height="6" style="stroke:#C82930;stroke-width:1.0;" width="6" x="30" y="173.6484"/><text fill="#000000" font-family="sans-serif" font-size="14" lengthAdjust="spacing" textLength="84" x="42" y="179.9951">amount: int</text><rect fill="none" height="6" style="stroke:#C82930;stroke-width:1.0;" width="6" x="30" y="189.9453"/><text fill="#000000" font-family="sans-serif" font-size="14" lengthAdjust="spacing" textLength="115" x="42" y="196.292">currency: String</text><line style="stroke:#181818;stroke-width:0.5;" x1="23" x2="291" y1="203.5938" y2="203.5938"/><ellipse cx="33" cy="217.2422" fill="#84BE84" rx="3" ry="3" style="stroke:#038048;stroke-width:1.0;"/><text fill="#000000" font-family="sans-serif" font-size="14" lengthAdjust="spacing" textLength="244" x="42" y="220.5889">this(amount: int, currency: String)</text><ellipse cx="33" cy="233.5391" fill="#84BE84" rx="3" ry="3" style="stroke:#038048;stroke-width:1.0;"/><text fill="#000000" font-family="sans-serif" font-size="14" lengthAdjust="spacing" textLength="179" x="42" y="236.8857">add(that: Money): Money</text></g><!--MD5=[84718776d214be480e4c259efcb737fc]
class Main--><g id="elem_Main"><rect codeLine="9" fill="#F1F1F1" height="64.2969" id="Main" rx="2.5" ry="2.5" style="stroke:#181818;stroke-width:0.5;" width="164" x="75" y="7"/><ellipse cx="136.25" cy="23" fill="#ADD1B2" rx="11" ry="11" style="stroke:#181818;stroke-width:1.0;"/><path d="M138.5938,18.6719 C137.6563,18.2344 137.0625,18.0938 136.1875,18.0938 C133.5625,18.0938 131.5625,20.1719 131.5625,22.8906 L131.5625,24.0156 C131.5625,26.5938 133.6719,28.4844 136.5625,28.4844 C137.7813,28.4844 138.9375,28.1875 139.6875,27.6406 C140.2656,27.2344 140.5938,26.7813 140.5938,26.3906 C140.5938,25.9375 140.2031,25.5469 139.7344,25.5469 C139.5156,25.5469 139.3125,25.625 139.125,25.8125 C138.6719,26.2969 138.6719,26.2969 138.4844,26.3906 C138.0625,26.6563 137.375,26.7813 136.6094,26.7813 C134.5625,26.7813 133.2656,25.6875 133.2656,23.9844 L133.2656,22.8906 C133.2656,21.1094 134.5156,19.7969 136.25,19.7969 C136.8281,19.7969 137.4375,19.9531 137.9063,20.2031 C138.3906,20.4844 138.5625,20.7031 138.6563,21.1094 C138.7188,21.5156 138.75,21.6406 138.8906,21.7656 C139.0313,21.9063 139.2656,22.0156 139.4844,22.0156 C139.75,22.0156 140.0156,21.875 140.1875,21.6563 C140.2969,21.5 140.3281,21.3125 140.3281,20.8906 L140.3281,19.4688 C140.3281,19.0313 140.3125,18.9063 140.2188,18.75 C140.0625,18.4844 139.7813,18.3438 139.4844,18.3438 C139.1875,18.3438 138.9844,18.4375 138.7656,18.75 L138.5938,18.6719 Z " fill="#000000"/><text fill="#000000" font-family="sans-serif" font-size="14" lengthAdjust="spacing" textLength="33" x="156.75" y="27.8467">Main</text><line style="stroke:#181818;stroke-width:0.5;" x1="76" x2="238" y1="39" y2="39"/><line style="stroke:#181818;stroke-width:0.5;" x1="76" x2="238" y1="47" y2="47"/><ellipse cx="86" cy="60.6484" fill="#84BE84" rx="3" ry="3" style="stroke:#038048;stroke-width:1.0;"/><text fill="#000000" font-family="sans-serif" font-size="14" lengthAdjust="spacing" text-decoration="underline" textLength="138" x="95" y="63.9951">main(args: String[])</text></g><!--MD5=[92d7243e70a1209535ff89d019609de6]
link Main to Money--><g id="link_Main_Money"><path codeLine="12" d="M157,71.069 C157,88.455 157,110.651 157,130.925 " fill="none" id="Main-Money" style="stroke:#181818;stroke-width:1.0;"/></g><!--MD5=[e7a6085a45782cb9c891abf694b7ea0b]
@startuml
package demo {
    class Money {
        - amount: int
        - currency: String
        + this(amount: int, currency: String)
        + add(that: Money): Money
    }
}
class Main {
+ {static} main(args: String[])
}
Main - - Money
@enduml

PlantUML version 1.2022.8beta7(Unknown compile time)
(GPL source distribution)
Java Runtime: Java(TM) SE Runtime Environment
JVM: Java HotSpot(TM) 64-Bit Server VM
Default Encoding: UTF-8
Language: en
Country: US
--></g></svg>